<svg width="400" height="500" xmlns="http://www.w3.org/2000/svg">
  <defs>
    <!-- Main gradient with vibrant purples -->
    <linearGradient id="mainGradient" x1="0%" y1="0%" x2="100%" y2="100%">
      <stop offset="0%" style="stop-color:#C084FC;stop-opacity:1" />
      <stop offset="25%" style="stop-color:#A855F7;stop-opacity:1" />
      <stop offset="50%" style="stop-color:#9333EA;stop-opacity:1" />
      <stop offset="75%" style="stop-color:#7C3AED;stop-opacity:1" />
      <stop offset="100%" style="stop-color:#5B21B6;stop-opacity:1" />
    </linearGradient>
    
    <!-- Inner glow gradient -->
    <radialGradient id="innerGlow" cx="50%" cy="50%" r="70%">
      <stop offset="0%" style="stop-color:#FFFFFF;stop-opacity:0.8" />
      <stop offset="40%" style="stop-color:#C084FC;stop-opacity:0.4" />
      <stop offset="100%" style="stop-color:#5B21B6;stop-opacity:0" />
    </radialGradient>
    
    <!-- Outer glow filter -->
    <filter id="glow" x="-50%" y="-50%" width="200%" height="200%">
      <feGaussianBlur stdDeviation="8" result="coloredBlur"/>
      <feMerge> 
        <feMergeNode in="coloredBlur"/>
        <feMergeNode in="SourceGraphic"/>
      </feMerge>
    </filter>
    
    <!-- Drop shadow -->
    <filter id="shadow" x="-50%" y="-50%" width="200%" height="200%">
      <feDropShadow dx="6" dy="8" stdDeviation="12" flood-color="#1F0A2E" flood-opacity="0.6"/>
    </filter>
    
    <!-- Metallic highlight -->
    <linearGradient id="highlight" x1="0%" y1="0%" x2="100%" y2="0%">
      <stop offset="0%" style="stop-color:#FFFFFF;stop-opacity:0" />
      <stop offset="40%" style="stop-color:#FFFFFF;stop-opacity:0.9" />
      <stop offset="60%" style="stop-color:#FFFFFF;stop-opacity:0.9" />
      <stop offset="100%" style="stop-color:#FFFFFF;stop-opacity:0" />
    </linearGradient>
  </defs>
  
  <!-- Background glow circle -->
  <circle cx="200" cy="250" r="180" fill="url(#innerGlow)" opacity="0.3"/>
  
  <!-- Main letter P -->
  <g filter="url(#shadow)">
    <path d="M 80 80 
             L 80 420 
             L 140 420 
             L 140 280 
             L 240 280 
             C 290 280 320 250 320 200 
             L 320 160 
             C 320 110 290 80 240 80 
             L 140 80 
             L 140 80 
             Z
             
             M 140 140 
             L 230 140 
             C 250 140 260 150 260 170 
             L 260 190 
             C 260 210 250 220 230 220 
             L 140 220 
             Z" 
          fill="url(#mainGradient)" 
          stroke="url(#mainGradient)" 
          stroke-width="3"
          filter="url(#glow)"/>
  </g>
  
  <!-- Metallic highlight overlay -->
  <path d="M 80 80 
           L 80 420 
           L 140 420 
           L 140 280 
           L 240 280 
           C 290 280 320 250 320 200 
           L 320 160 
           C 320 110 290 80 240 80 
           L 140 80 
           L 140 80 
           Z
           
           M 140 140 
           L 230 140 
           C 250 140 260 150 260 170 
           L 260 190 
           C 260 210 250 220 230 220 
           L 140 220 
           Z" 
        fill="url(#highlight)" 
        opacity="0.4"/>
  
  <!-- Extra sparkle effects -->
  <circle cx="280" cy="120" r="3" fill="#FFFFFF" opacity="0.9">
    <animate attributeName="opacity" values="0.9;0.3;0.9" dur="2s" repeatCount="indefinite"/>
  </circle>
  <circle cx="300" cy="180" r="2" fill="#C084FC" opacity="0.8">
    <animate attributeName="opacity" values="0.8;0.2;0.8" dur="1.5s" repeatCount="indefinite"/>
  </circle>
  <circle cx="120" cy="150" r="2.5" fill="#FFFFFF" opacity="0.7">
    <animate attributeName="opacity" values="0.7;0.1;0.7" dur="2.5s" repeatCount="indefinite"/>
  </circle>
</svg>